<?xml version="1.0" encoding="UTF-8"?>
<svg width="2750px" height="900px" viewBox="0 0 2750 900" version="1.1" xmlns="http://www.w3.org/2000/svg" xmlns:xlink="http://www.w3.org/1999/xlink">
    <!-- Generator: Sketch 52.6 (67491) - http://www.bohemiancoding.com/sketch -->
    <title>Waves Blue</title>
    <desc>Created with Sketch.</desc>
    <g id="Waves-Blue" stroke="none" stroke-width="1" fill="none" fill-rule="evenodd">
        <path d="M0,200.525847 C139.289404,118.304476 246.452277,77.1937907 321.488617,77.1937907 C434.043128,77.1937907 579.882447,200.525847 715.442634,200.525847 C851.002821,200.525847 845.195178,116.674789 985.359146,116.674789 C1125.52311,116.674789 1173.92896,200.525847 1321.30288,200.525847 C1468.67679,200.525847 1468.67679,77.1937907 1562.03565,77.1937907 C1655.39451,77.1937907 1698.01917,135.722462 1791.94689,135.722462 C1885.87461,135.722462 1889.93599,51 2023.77637,51 C2157.61676,51 2241.56962,246.000552 2297.67489,246.000552 C2353.78017,246.000552 2426.22357,200.525847 2486.52252,200.525847 C2546.82147,200.525847 2543.79197,246.000552 2637.56094,246.000552 C2700.07358,246.000552 2737.55327,181.000368 2750,51 L2750,900 L0,883.569282 L0,200.525847 Z" id="Path-4" fill-opacity="0.0665194746" fill="#825EE4" fill-rule="nonzero"></path>
        <path d="M-1.2003766e-13,123.264935 C3.27271509,108.142871 49.4078803,100.581839 138.405496,100.581839 C271.901919,100.581839 423.458628,179.328371 512.283989,179.328371 C601.109351,179.328371 609.295532,167.014331 713.791546,167.014331 C818.287561,167.014331 847.500035,200.212316 1011.65891,200.212316 C1175.81778,200.212316 1299.20404,143.245581 1428.06892,143.245581 C1556.93381,143.245581 1587.42914,200.212316 1746.98065,200.212316 C1906.53216,200.212316 1944.22253,91.1190593 2127.07394,100.581839 C2309.92534,110.044619 2503.82932,257.153833 2582.06767,257.153833 C2634.22657,257.153833 2690.20401,219.184416 2750,143.245581 L2750,900 L-2.27373675e-13,900 L-1.2003766e-13,123.264935 Z" id="Path-5" fill-opacity="0.104138361" fill="#5E72E4" fill-rule="nonzero"></path>
    </g>
</svg>