<svg width="2750" height="900" viewBox="0 0 2750 900" fill="none" xmlns="http://www.w3.org/2000/svg">
  <g clip-path="url(#clip0_17_2)">
    <path d="M0 200.526C139.289 118.304 246.452 77.1938 321.489 77.1938C434.043 77.1938 579.882 200.526 715.443 200.526C851.003 200.526 845.195 116.675 985.359 116.675C1125.52 116.675 1173.93 200.526 1321.3 200.526C1468.68 200.526 1468.68 77.1938 1562.04 77.1938C1655.39 77.1938 1698.02 135.722 1791.95 135.722C1885.87 135.722 1889.94 51 2023.78 51C2157.62 51 2241.57 246.001 2297.67 246.001C2353.78 246.001 2426.22 200.526 2486.52 200.526C2546.82 200.526 2543.79 246.001 2637.56 246.001C2700.07 246.001 2737.55 181 2750 51V900H0V200.526Z" fill="#825EE4" fill-opacity="0.0665195"/>
    <path d="M0 123.265C3.27272 108.143 49.4079 100.582 138.406 100.582C271.902 100.582 423.459 179.328 512.284 179.328C601.109 179.328 609.296 167.014 713.792 167.014C818.288 167.014 847.5 200.212 1011.66 200.212C1175.82 200.212 1299.2 143.246 1428.07 143.246C1556.93 143.246 1587.43 200.212 1746.98 200.212C1906.53 200.212 1944.22 91.1191 2127.07 100.582C2309.93 110.045 2503.83 257.154 2582.07 257.154C2634.23 257.154 2690.2 219.184 2750 143.246V900H0L0 123.265Z" fill="#5E72E4" fill-opacity="0.104138"/>
  </g>
</svg>
