<?xml version="1.0" encoding="UTF-8"?>
<svg width="310px" height="82px" viewBox="0 0 310 82" version="1.1" xmlns="http://www.w3.org/2000/svg" xmlns:xlink="http://www.w3.org/1999/xlink">
    <!-- Generator: Sketch 52.6 (67491) - http://www.bohemiancoding.com/sketch -->
    <title>Logo</title>
    <desc>Created with Sketch.</desc>
    <g id="Logo" stroke="none" stroke-width="1" fill="none" fill-rule="evenodd">
        <text id="OpenPace" font-family="BreeSerif-Regular, Bree Serif" font-size="55" font-weight="normal" fill="#4A4A4A">
            <tspan x="62" y="59">OpenPace</tspan>
        </text>
        <path d="M27.8156986,13 L51.6313972,26.75 L51.6313972,54.25 L27.8156986,68 L4,54.25 L4,26.75 L27.8156986,13 Z M11.0996492,45.4320988 C10.1144005,45.4320988 9.3156986,46.2308007 9.3156986,47.2160494 C9.3156986,48.2012981 10.1144005,49 11.0996492,49 L34.0468995,49 C35.0321482,49 35.8308501,48.2012981 35.8308501,47.2160494 C35.8308501,46.2308007 35.0321482,45.4320988 34.0468995,45.4320988 L11.0996492,45.4320988 Z M15.3420735,38.7160494 C14.3568247,38.7160494 13.5581228,39.5147513 13.5581228,40.5 C13.5581228,41.4852487 14.3568247,42.2839506 15.3420735,42.2839506 L38.2893237,42.2839506 C39.2745725,42.2839506 40.0732744,41.4852487 40.0732744,40.5 C40.0732744,39.5147513 39.2745725,38.7160494 38.2893237,38.7160494 L15.3420735,38.7160494 Z M19.5844977,32 C18.599249,32 17.8005471,32.7987019 17.8005471,33.7839506 C17.8005471,34.7691993 18.599249,35.5679012 19.5844977,35.5679012 L42.531748,35.5679012 C43.5169967,35.5679012 44.3156986,34.7691993 44.3156986,33.7839506 C44.3156986,32.7987019 43.5169967,32 42.531748,32 L19.5844977,32 Z" id="Combined-Shape" fill="#4A4A4A" fill-rule="nonzero"></path>
    </g>
</svg>