<?xml version="1.0" encoding="UTF-8"?>
<svg width="2750px" height="401px" viewBox="0 0 2750 401" version="1.1" xmlns="http://www.w3.org/2000/svg" xmlns:xlink="http://www.w3.org/1999/xlink">
    <!-- Generator: Sketch 51.1 (57501) - http://www.bohemiancoding.com/sketch -->
    <title>Waves Orange</title>
    <desc>Created with Sketch.</desc>
    <defs></defs>
    <g id="Waves-Orange" stroke="none" stroke-width="1" fill="none" fill-rule="evenodd">
        <path d="M3.08069542e-14,200.5 C139.289404,118.268029 246.452277,77.152043 321.488617,77.152043 C434.043128,77.152043 579.882447,200.5 715.442634,200.5 C851.002821,200.5 845.195178,116.638132 985.359146,116.638132 C1125.52311,116.638132 1173.92896,200.5 1321.30288,200.5 C1468.67679,200.5 1468.67679,77.152043 1562.03565,77.152043 C1655.39451,77.152043 1698.01917,135.68826 1791.94689,135.68826 C1885.87461,135.68826 1889.93599,50.9548753 2023.77637,50.9548753 C2157.61676,50.9548753 2241.56962,245.980568 2297.67489,245.980568 C2353.78017,245.980568 2426.22357,200.5 2486.52252,200.5 C2546.82147,200.5 2543.79197,245.980568 2637.56094,245.980568 C2700.07358,245.980568 2737.55327,180.972004 2750,50.9548753 L2750,401 L2.84217094e-14,401 L3.08069542e-14,200.5 Z" id="Path-4" fill-opacity="0.0778702446" fill="#F8E71C" fill-rule="nonzero"></path>
        <path d="M-2.84217094e-14,123.662867 C3.27271509,108.56247 49.4078803,101.012271 138.405496,101.012271 C271.901919,101.012271 423.458628,179.645977 512.283989,179.645977 C601.109351,179.645977 609.295532,167.34958 713.791546,167.34958 C818.287561,167.34958 847.500035,200.5 1011.65891,200.5 C1175.81778,200.5 1299.20404,143.614885 1428.06892,143.614885 C1556.93381,143.614885 1587.42914,200.5 1746.98065,200.5 C1906.53216,200.5 1944.22253,91.5630492 2127.07394,101.012271 C2309.92534,110.461493 2503.82932,257.359932 2582.06767,257.359932 C2634.22657,257.359932 2690.20401,219.444917 2750,143.614885 L2750,401 L-2.84217094e-14,401 L-2.84217094e-14,123.662867 Z" id="Path-5" fill-opacity="0.0765115489" fill="#FF8552" fill-rule="nonzero"></path>
    </g>
</svg>